<?xml version="1.0" standalone="no"?>
<!DOCTYPE svg PUBLIC "-//W3C//DTD SVG 20010904//EN"
 "http://www.w3.org/TR/2001/REC-SVG-20010904/DTD/svg10.dtd">
<svg version="1.0" xmlns="http://www.w3.org/2000/svg"
 width="1024.000000pt" height="1024.000000pt" viewBox="0 0 1024.000000 1024.000000"
 preserveAspectRatio="xMidYMid meet">
<metadata>
Created by potrace 1.14, written by Peter Selinger 2001-2017
</metadata>
<g transform="translate(0.000000,1024.000000) scale(0.100000,-0.100000)"
fill="#000000" stroke="none">
<path d="M2180 7914 c-101 -36 -159 -82 -189 -149 -28 -61 -78 -202 -101 -285
-36 -126 -61 -222 -71 -270 -43 -197 -77 -387 -84 -465 -3 -33 -10 -109 -16
-170 -12 -127 -10 -484 3 -662 l9 -123 -28 -42 c-15 -24 -33 -52 -39 -63 -6
-11 -23 -40 -38 -65 -14 -25 -35 -63 -46 -85 -11 -22 -24 -47 -29 -55 -23 -37
-85 -181 -128 -295 -8 -22 -19 -47 -23 -55 -4 -9 -11 -31 -15 -50 -4 -19 -11
-39 -15 -45 -4 -5 -10 -23 -13 -40 -7 -39 -37 -154 -48 -180 -4 -11 -10 -33
-12 -50 -3 -16 -12 -68 -20 -115 -42 -228 -44 -250 -42 -528 2 -343 23 -489
114 -807 83 -293 243 -599 439 -841 64 -79 206 -234 215 -234 2 0 24 -19 48
-43 24 -23 60 -54 79 -69 19 -14 32 -29 29 -32 -4 -4 -64 -8 -135 -9 -116 -2
-134 -5 -174 -28 -133 -73 -130 -273 5 -343 l40 -21 3025 0 3025 1 45 24 c24
14 57 43 72 65 49 72 34 189 -34 252 -28 26 -103 55 -138 52 -14 0 -70 -1
-124 0 l-99 1 34 32 c19 18 52 46 74 63 49 36 217 205 253 254 15 20 33 40 39
44 7 4 13 14 13 21 0 8 7 19 16 27 16 13 53 68 149 224 19 30 47 81 90 165 13
25 40 86 60 135 20 50 40 99 45 110 5 11 16 45 25 75 10 30 22 66 26 78 5 13
12 40 15 60 3 21 9 41 12 47 3 5 7 25 9 45 2 19 8 46 13 60 10 29 36 197 49
315 12 108 6 552 -8 645 -6 41 -13 89 -15 105 -9 66 -57 266 -92 380 -76 250
-182 497 -295 682 -82 133 -80 126 -69 270 18 228 4 746 -24 898 -3 17 -10 59
-15 95 -15 100 -38 224 -51 271 -7 23 -13 52 -14 64 -1 11 -5 25 -8 30 -6 11
-38 126 -45 165 -2 14 -9 34 -14 45 -5 11 -20 56 -34 99 -36 111 -87 216 -121
250 -84 84 -205 92 -429 31 -33 -9 -74 -23 -92 -31 -17 -7 -36 -14 -41 -14
-16 0 -259 -93 -337 -130 -94 -43 -235 -115 -277 -140 -18 -11 -40 -23 -48
-27 -59 -28 -222 -132 -228 -145 -2 -5 -9 -8 -16 -8 -7 0 -21 -9 -31 -20 -10
-11 -22 -20 -28 -20 -5 0 -25 -14 -45 -31 -42 -38 -44 -37 -247 24 -129 39
-180 53 -230 63 -5 1 -53 11 -107 23 -53 11 -116 23 -140 26 -23 2 -95 11
-158 19 -147 19 -329 30 -450 28 -136 -2 -429 -27 -540 -47 -14 -2 -56 -9 -95
-14 -38 -6 -104 -19 -145 -30 -41 -10 -91 -22 -111 -25 -20 -4 -99 -27 -175
-51 -76 -25 -146 -45 -155 -45 -8 0 -24 8 -35 18 -10 10 -33 26 -51 37 -17 11
-71 47 -120 81 -221 152 -590 332 -848 413 -38 12 -79 26 -90 31 -19 8 -48 16
-150 41 -49 13 -164 21 -185 13z m188 -443 c9 -5 58 -21 107 -36 50 -14 98
-30 108 -36 9 -5 45 -20 80 -33 54 -20 263 -120 307 -147 8 -5 29 -16 45 -25
49 -27 165 -107 165 -114 0 -10 -71 -56 -100 -65 -14 -4 -33 -16 -43 -26 -10
-11 -23 -19 -29 -19 -6 0 -39 -18 -74 -40 -35 -22 -67 -40 -72 -40 -5 0 -17
-9 -27 -20 -9 -10 -21 -18 -25 -17 -3 1 -19 -7 -35 -18 -149 -107 -253 -184
-276 -205 -58 -53 -144 -126 -158 -134 -9 -5 -19 -14 -23 -20 -14 -21 -143
-148 -171 -168 l-29 -21 6 79 c3 44 9 106 12 139 4 33 6 67 6 75 0 28 37 305
53 390 19 101 36 174 80 335 50 182 53 187 93 166z m5140 -8 c8 -16 23 -69 67
-228 8 -27 23 -90 35 -140 12 -49 25 -106 30 -125 5 -19 12 -57 15 -85 4 -27
13 -91 21 -141 15 -97 18 -127 29 -274 10 -135 12 -180 7 -180 -2 0 -37 33
-79 73 -103 98 -134 127 -177 162 -20 17 -49 42 -64 58 -14 15 -32 27 -39 27
-7 0 -13 3 -13 8 0 11 -233 182 -249 182 -5 0 -14 7 -22 16 -7 8 -29 24 -48
35 -20 11 -56 33 -81 49 -25 16 -56 35 -70 43 -14 7 -47 26 -74 41 -27 16 -75
42 -107 59 -33 17 -59 34 -59 37 0 9 197 130 213 130 8 0 22 7 31 15 8 9 30
22 48 31 18 8 40 18 48 23 40 22 134 65 177 81 26 10 93 34 148 55 55 20 117
40 138 45 21 4 41 10 44 14 11 11 22 7 31 -11z m-2525 -384 c2 -2 16 -62 31
-134 167 -781 734 -1483 1516 -1875 512 -257 1001 -397 1452 -417 l146 -6 7
-36 c4 -20 9 -46 10 -58 2 -12 6 -34 9 -50 20 -98 32 -410 21 -563 -12 -163
-26 -256 -62 -405 -27 -114 -96 -322 -111 -337 -5 -5 -54 5 -113 23 -57 17
-160 47 -229 66 -69 19 -163 46 -209 60 -112 34 -185 30 -238 -14 -21 -16 -44
-43 -52 -59 -22 -44 -25 -114 -7 -157 18 -42 82 -93 129 -102 37 -8 139 -39
212 -65 90 -32 185 -60 205 -60 10 0 22 -4 25 -10 3 -5 16 -10 28 -10 12 0 29
-4 37 -10 17 -11 5 -36 -49 -103 -20 -24 -47 -59 -61 -78 -21 -28 -145 -153
-200 -201 -38 -33 -148 -112 -189 -136 -26 -14 -48 -29 -51 -32 -6 -7 -160
-81 -215 -103 -22 -9 -53 -22 -70 -29 -16 -6 -34 -12 -40 -13 -5 -1 -33 -9
-60 -18 -131 -44 -97 -44 -1960 -43 -973 1 -1775 4 -1780 8 -6 4 -29 9 -51 11
-61 7 -197 55 -314 110 -165 77 -316 181 -465 317 -33 30 -176 189 -203 225
-34 45 -54 77 -51 80 2 2 56 19 119 38 63 19 128 40 143 46 15 6 31 10 35 9 4
-1 20 4 35 10 16 7 35 12 42 12 8 0 24 4 37 9 13 5 48 17 78 26 85 28 134 66
155 120 45 118 -42 245 -168 245 -24 0 -82 -11 -128 -25 -46 -14 -109 -33
-139 -42 -30 -9 -59 -17 -65 -18 -5 0 -44 -11 -85 -23 -271 -81 -258 -80 -276
-27 -8 22 -18 49 -24 60 -32 69 -89 295 -111 445 -23 159 -30 429 -16 600 5
61 50 348 61 385 1 6 8 30 15 55 23 86 73 245 87 277 8 17 14 36 14 41 0 9 20
54 56 124 8 14 14 33 14 42 0 9 4 16 9 16 5 0 15 17 22 38 6 20 15 39 19 42 4
3 17 23 29 45 26 49 39 71 68 112 13 17 23 36 23 40 0 5 9 18 19 30 10 11 26
33 35 49 9 16 31 48 49 71 17 22 50 65 73 95 23 29 55 68 73 87 17 18 31 35
31 37 0 9 269 282 320 324 23 19 61 52 83 72 23 21 75 61 115 90 41 29 93 68
118 86 24 17 50 32 57 32 6 1 28 14 47 30 19 17 37 30 41 30 4 0 36 17 70 39
56 33 169 90 354 177 28 13 64 26 80 30 17 4 32 10 35 13 3 3 46 19 95 34 50
16 102 35 116 43 14 7 29 11 32 7 4 -3 12 -1 19 4 7 6 38 16 68 23 30 6 69 16
85 21 67 19 255 58 335 70 120 17 139 18 285 25 72 3 132 8 135 10 5 6 128 -1
133 -7z"/>
<path d="M3242 4779 c-57 -11 -144 -54 -160 -79 -11 -18 -9 -20 16 -25 50 -11
107 -45 131 -80 72 -106 0 -245 -127 -245 -78 0 -133 46 -153 127 -19 72 -48
52 -75 -52 -35 -130 1 -275 98 -398 65 -82 222 -157 326 -157 69 0 172 25 231
55 28 14 77 51 109 83 202 203 171 541 -65 703 -86 60 -226 88 -331 68z"/>
<path d="M6430 4779 c-25 -3 -65 -14 -90 -24 -44 -18 -100 -61 -100 -77 0 -4
12 -8 28 -8 43 -1 107 -35 133 -71 34 -48 34 -140 0 -186 -69 -92 -205 -81
-257 19 -8 15 -14 36 -14 48 0 31 -37 25 -54 -9 -23 -44 -34 -132 -25 -208 11
-90 64 -197 130 -262 52 -51 135 -101 167 -101 10 0 23 -5 30 -12 20 -20 207
-13 273 10 278 98 392 413 243 668 -50 85 -161 170 -264 202 -44 14 -141 19
-200 11z"/>
<path d="M4860 3953 c-95 -36 -124 -79 -134 -197 -10 -116 -42 -164 -123 -185
-76 -20 -117 4 -134 80 -21 92 -78 135 -167 126 -185 -19 -201 -286 -28 -444
80 -73 153 -98 286 -98 96 0 110 3 170 31 45 21 82 49 119 90 l55 59 62 -63
c39 -38 85 -73 121 -90 51 -24 70 -27 163 -27 122 1 131 2 228 48 43 19 142
112 142 132 0 6 8 26 19 45 42 78 44 171 6 235 -46 79 -135 106 -215 65 -42
-22 -61 -49 -79 -118 -15 -55 -44 -74 -109 -71 -92 4 -151 79 -152 189 -1 111
-66 188 -167 195 -26 2 -55 1 -63 -2z"/>
<path d="M1937 3940 c-56 -10 -113 -70 -126 -131 -6 -27 -9 -54 -7 -61 3 -7 7
-25 10 -41 4 -15 22 -45 42 -67 36 -39 65 -50 179 -65 119 -16 203 -27 225
-31 173 -28 232 -35 272 -31 114 10 187 135 140 239 -44 100 -78 114 -337 148
-77 10 -156 21 -175 24 -58 10 -175 26 -180 25 -3 -1 -22 -5 -43 -9z"/>
<path d="M7785 3937 c-56 -7 -78 -10 -173 -20 -44 -5 -75 -10 -242 -38 -141
-23 -176 -42 -211 -111 -41 -81 -6 -199 72 -238 46 -24 99 -25 205 -5 44 7
142 21 219 30 243 28 303 46 345 106 29 40 33 148 7 196 -36 67 -113 95 -222
80z"/>
</g>
</svg>
